<svg width="198" height="40" viewBox="0 0 198 40" fill="none" xmlns="http://www.w3.org/2000/svg">
<path d="M131.967 0.0371323C130.62 0.249332 128.949 0.859413 127.591 1.63926C124.212 3.5809 122.101 6.49867 121.497 10.053C121.2 11.809 121.29 13.9629 121.725 15.6286C122.833 19.8355 126.063 22.6737 131.145 23.9098L131.728 24.053L135.308 24.0796L138.889 24.1114L139.35 24.2759C140.093 24.5411 140.581 24.8488 141.116 25.3846C141.663 25.9257 141.954 26.4138 142.161 27.1406C142.262 27.496 142.283 27.6817 142.283 28.382C142.283 29.0875 142.267 29.2573 142.166 29.5756C141.753 30.8806 140.538 31.8727 138.814 32.313C138.438 32.4085 138.104 32.4138 129.888 32.4138H121.359V36.2069V40H129.331C134.173 40 137.547 39.9788 137.934 39.9469C140.443 39.7347 143.052 39.0981 145.094 38.1963C147.03 37.3422 148.722 36.122 149.157 35.2679L149.263 35.0663L150.016 35.8249C150.876 36.6897 151.39 37.1141 152.334 37.7454C155.787 40.0477 159.977 40.6048 163.86 39.2785C165.011 38.8806 166.31 38.2175 167.255 37.5385C167.483 37.374 167.69 37.2414 167.716 37.2414C167.743 37.2414 167.976 37.3687 168.231 37.5225C170.267 38.7533 172.442 39.5544 174.611 39.8727C175.142 39.9523 175.874 39.9682 180.074 39.9841C183.273 40 185.198 39.9894 185.718 39.9523C189.839 39.6499 193.329 38.0902 195.393 35.6233C196.697 34.069 197.44 32.2599 197.748 29.9204C197.779 29.6446 197.811 28.8806 197.811 28.2228C197.801 23.1088 195.928 19.4164 192.38 17.5119C191.499 17.0398 190.067 16.5676 189.012 16.3926C188.81 16.3607 188.582 16.3183 188.508 16.3024C188.434 16.2865 186.694 16.2546 184.636 16.2334C181.39 16.2016 180.859 16.1857 180.605 16.1114C179.183 15.687 178.372 14.6419 178.165 12.9761C177.873 10.6737 178.992 8.91246 181.252 8.13793L181.851 7.93103L189.929 7.91512L198.002 7.90451V3.95225V-3.8147e-06H188.969C178.955 -3.8147e-06 179.565 -0.0212212 178.34 0.350128C176.521 0.901855 174.601 1.94164 173.206 3.14058C171.026 5.00795 169.726 7.27851 169.254 10.053C169.143 10.6897 169.031 12.2812 169.079 12.4721C169.122 12.6207 169.031 12.5942 168.851 12.4085C168.597 12.1379 167.817 11.496 167.26 11.1034C164.009 8.79045 159.935 8.06896 156.127 9.13528C154.451 9.60212 152.706 10.504 151.274 11.6499C150.648 12.1538 149.518 13.2891 148.993 13.9523C147.704 15.5756 146.733 17.4536 146.15 19.443L145.98 20.0212L145.582 19.2202C145.206 18.4721 145.158 18.4085 144.845 18.1591C143.79 17.3156 142.474 16.7109 141.01 16.3873C140.501 16.2759 140.337 16.2653 136.82 16.2334C133.547 16.2016 133.128 16.191 132.842 16.1061C132.29 15.9416 131.813 15.6605 131.41 15.2573C130.757 14.5995 130.445 13.7825 130.391 12.5889C130.354 11.8249 130.423 11.2997 130.646 10.695C131.044 9.60212 132.009 8.68965 133.272 8.22281C134.173 7.88329 133.547 7.90451 143.206 7.90451H152.016V3.95225V-3.8147e-06L142.06 0.00530243C136.581 0.0106087 132.041 0.0265236 131.967 0.0371323ZM159.946 16.2599C162.354 16.679 164.321 19.3475 164.772 22.7958C164.873 23.5703 164.873 25.0239 164.772 25.7984C164.502 27.8674 163.664 29.7294 162.465 30.939C159.553 33.8621 155.591 32.2281 154.132 27.496C153.835 26.5464 153.697 25.5066 153.697 24.2971C153.697 23.2997 153.745 22.8064 153.926 21.9204C154.424 19.5013 155.777 17.4748 157.453 16.6472C157.904 16.4191 158.121 16.3501 158.614 16.2599C159.124 16.1645 159.399 16.1645 159.946 16.2599ZM174.145 21.9682C175.508 22.8541 177.619 23.6764 179.295 23.9788C179.841 24.0796 180.117 24.0849 183.156 24.0849H186.429L186.895 24.2228C187.776 24.4775 188.577 24.9814 189.134 25.6393C190.014 26.6737 190.322 28.3979 189.866 29.7188C189.441 30.9284 188.216 31.8939 186.583 32.3024C186.132 32.4191 186.11 32.4191 180.356 32.3979C174.086 32.382 174.394 32.3926 173.471 32.0849C173.047 31.9469 172.278 31.5756 172.278 31.5119C172.278 31.4801 172.384 31.2149 172.511 30.9125C173.057 29.618 173.466 28.1167 173.694 26.5199C173.81 25.6764 173.821 22.9655 173.699 22.1591C173.662 21.878 173.63 21.6446 173.641 21.6446C173.646 21.6446 173.874 21.7878 174.145 21.9682Z" fill="#EE1D25"/>
<path d="M10.8223 13.5282V19.7881H11.9361H13.05V13.5282V7.26825H11.9361H10.8223V13.5282Z" fill="#034EA2"/>
<path d="M29.8096 13.5282V19.7881H30.9234H32.0373V13.5282V7.26825H30.9234H29.8096V13.5282Z" fill="#034EA2"/>
<path d="M47.3202 13.1728L47.3361 19.0826L47.4846 19.2948C47.5642 19.4115 47.7498 19.5706 47.8877 19.6502L48.1476 19.7881H51.6165H55.0853L55.3187 19.6661C55.4513 19.6025 55.6316 19.4486 55.7271 19.3213L55.9021 19.0879V19.438V19.7881H57.8222C59.6733 19.7881 59.7476 19.7828 59.9756 19.6767C60.1029 19.6131 60.278 19.4645 60.3628 19.3478L60.5166 19.1356V19.4592V19.7881H62.4526C64.5742 19.7881 64.5955 19.7881 64.9084 19.4698C65.2532 19.1303 65.2372 19.3054 65.2372 15.1144V11.3001H64.0969H62.9565V14.4301V17.56H61.7631H60.5697V14.4301V11.3001H59.4293H58.2889V14.4301V17.56H57.1221H55.9552V14.4301V11.3001H54.7883H53.6214V14.4301V17.56H51.6058H49.5903V12.4141V7.26825H48.4499H47.3096L47.3202 13.1728Z" fill="#034EA2"/>
<path d="M85.3918 7.48046C82.2465 7.71918 79.4247 9.31069 78.1146 11.5706C77.7858 12.1383 77.6479 12.5574 77.6107 13.0826C77.5577 13.8836 77.8706 14.4672 78.5124 14.7537L78.7882 14.881L82.2093 14.9075C85.3493 14.934 85.6464 14.9393 85.8002 15.0295C86.1184 15.1993 86.1555 15.3425 86.1768 16.5096L86.198 17.56H81.1273H76.0566V18.6741V19.7881L94.3185 19.7775L112.586 19.7616L112.803 19.6078C112.946 19.5123 113.074 19.3584 113.164 19.1728L113.302 18.8916L113.28 16.8332C113.259 14.9393 113.249 14.7431 113.143 14.3664C113.084 14.1436 112.994 13.8836 112.946 13.7881C112.792 13.4911 112.453 13.1781 112.135 13.0348C111.509 12.7537 111.191 12.7271 107.95 12.6953C106.306 12.6794 104.964 12.6529 104.964 12.6316C104.964 12.5309 105.399 11.9685 105.727 11.6449C106.39 10.9924 107.34 10.4354 108.358 10.1118C109.096 9.87303 109.637 9.76693 110.517 9.69266L111.249 9.629L111.286 8.56799C111.307 7.78815 111.302 7.49637 111.26 7.46454C111.175 7.41149 110.172 7.46985 109.472 7.56534C106.634 7.96852 104.136 9.49637 102.938 11.5706C102.609 12.1383 102.471 12.5574 102.434 13.0826C102.381 13.8836 102.694 14.4672 103.335 14.7537L103.611 14.881L107.032 14.9075C110.172 14.934 110.469 14.9393 110.623 15.0295C110.941 15.1993 110.978 15.3425 111 16.5096L111.021 17.56H105.208H99.3944L99.3838 14.6263L99.3679 11.6874L99.2141 11.4698C99.1186 11.3266 98.9648 11.1993 98.7898 11.1144L98.5193 10.9871L96.3977 10.9712C94.2919 10.9553 94.2707 10.9553 93.9048 11.0773C92.4833 11.5547 91.4331 12.6316 90.9557 14.0852C90.8443 14.4301 90.8337 14.5733 90.8125 16.0057L90.7913 17.56H89.635H88.4787L88.4575 16.1648C88.4363 14.9712 88.4151 14.7165 88.3196 14.3664C88.2612 14.1436 88.1711 13.8836 88.1233 13.7881C87.9695 13.4911 87.6301 13.1781 87.3118 13.0348C86.6859 12.7537 86.3677 12.7271 83.1269 12.6953C81.4827 12.6794 80.1408 12.6529 80.1408 12.6316C80.1408 12.5309 80.5757 11.9685 80.9045 11.6449C81.5675 10.9924 82.517 10.4354 83.5353 10.1118C84.2726 9.87303 84.8136 9.76693 85.6941 9.69266L86.426 9.629L86.4632 8.56799C86.4844 7.78815 86.4791 7.49637 86.4367 7.46985C86.3624 7.4221 86.1078 7.42741 85.3918 7.48046ZM96.6788 13.194L97.1137 13.2258V15.3903V17.56H95.0929H93.0773L93.0932 16.1118C93.1091 14.6794 93.1091 14.6688 93.2471 14.3717C93.491 13.8518 94.0002 13.4009 94.5306 13.2364C94.7746 13.1568 95.9415 13.1356 96.6788 13.194Z" fill="#034EA2"/>
<path d="M4.0287 8.16413C3.75289 8.22249 3.54073 8.34981 3.32857 8.58323C2.76104 9.20922 3.07398 10.2384 3.90141 10.4824C4.9463 10.7848 5.84269 9.72912 5.34411 8.77951C5.11073 8.33389 4.53259 8.06333 4.0287 8.16413Z" fill="#034EA2"/>
<path d="M40.9472 8.16413C40.6714 8.22249 40.4592 8.34981 40.247 8.58323C39.6795 9.20922 39.9924 10.2384 40.8199 10.4824C41.8648 10.7848 42.7611 9.72912 42.2626 8.77951C42.0292 8.33389 41.451 8.06333 40.9472 8.16413Z" fill="#034EA2"/>
<path d="M25.4083 14.4293V17.5593H22.8517H20.2899V16.1959C20.2899 15.4426 20.2687 14.2702 20.2421 13.5911L20.1944 12.3604H19.0646H17.9296V12.6097C17.9296 12.7529 17.9561 13.6177 17.9879 14.5407C18.1364 18.6681 17.7651 20.6097 16.6089 21.7503C16.0466 22.302 15.3783 22.5885 14.4183 22.6787L14.0576 22.7158V23.8299V24.9492L14.5509 24.9068C16.2429 24.7795 17.3673 24.2914 18.3433 23.2675C18.7782 22.806 19.0063 22.4718 19.3139 21.8405C19.4996 21.4585 19.8762 20.3551 19.9663 19.9307L19.9981 19.7874H23.4246C27.1639 19.7874 27.0313 19.798 27.3602 19.4691C27.7049 19.1296 27.689 19.3047 27.689 15.1137V11.2994H26.5486H25.4083V14.4293Z" fill="#034EA2"/>
<path d="M6.78862 15.2897C6.78862 17.8785 6.76741 19.2791 6.73028 19.5072C6.61889 20.1385 6.16274 20.6584 5.49443 20.9183C5.14437 21.0509 4.35937 21.0987 3.91383 21.0085C3.25613 20.8812 2.71512 20.4833 2.4287 19.9051C2.3067 19.6557 2.3067 19.6398 2.29079 17.4647L2.27488 15.2791H1.13451H-0.00585938L0.0100528 17.5974C0.036573 20.1703 0.036573 20.1968 0.397248 20.9342C0.922348 22.0112 1.9142 22.7963 3.18187 23.1411C3.57437 23.2472 3.7494 23.2631 4.56092 23.2578C5.42018 23.2578 5.52626 23.2472 5.96119 23.1093C6.78332 22.86 7.32963 22.5417 7.88126 21.9899C8.28967 21.5868 8.40105 21.4329 8.60791 21.0085C9.06406 20.0801 9.03754 20.409 9.05875 15.6345L9.07467 11.4064H7.92899H6.78862V15.2897Z" fill="#034EA2"/>
<path d="M43.7071 15.2897C43.7071 17.8785 43.6859 19.2791 43.6487 19.5072C43.5373 20.1385 43.0812 20.6584 42.4129 20.9183C42.0628 21.0509 41.2778 21.0987 40.8323 21.0085C40.1746 20.8812 39.6336 20.4833 39.3472 19.9051C39.2252 19.6557 39.2252 19.6398 39.2092 17.4647L39.1933 15.2791H38.053H36.9126L36.9285 17.5974C36.955 20.1703 36.955 20.1968 37.3157 20.9342C37.8408 22.0112 38.8327 22.7963 40.1003 23.1411C40.4928 23.2472 40.6679 23.2631 41.4794 23.2578C42.3386 23.2578 42.4447 23.2472 42.8796 23.1093C43.7018 22.86 44.2481 22.5417 44.7997 21.9899C45.2081 21.5868 45.3195 21.4329 45.5264 21.0085C45.9825 20.0801 45.956 20.409 45.9772 15.6345L45.9931 11.4064H44.8474H43.7071V15.2897Z" fill="#034EA2"/>
<path d="M69.2719 12.6097C69.2719 12.7529 69.2984 13.6177 69.3302 14.5407C69.4787 18.6681 69.1074 20.6097 67.9511 21.7503C67.3889 22.302 66.7206 22.5885 65.7606 22.6787L65.3999 22.7158V23.8299V24.9492L65.8932 24.9068C67.5799 24.7795 68.6937 24.302 69.6697 23.2834C70.582 22.3338 71.1336 21.0712 71.4465 19.241C71.664 17.9413 71.6958 16.5248 71.5738 13.2728L71.5367 12.3604H70.4016H69.2719V12.6097Z" fill="#034EA2"/>
<path d="M22.638 21.5061C22.3568 21.6069 22.1977 21.7183 22.0492 21.9199C21.6196 22.5034 21.7681 23.278 22.3834 23.644C22.6273 23.7926 22.7228 23.8191 23.0039 23.8191C23.7359 23.8191 24.2398 23.3416 24.2398 22.652C24.2398 22.1798 24.0064 21.7979 23.5821 21.5804C23.3169 21.4424 22.8925 21.4106 22.638 21.5061Z" fill="#034EA2"/>
<path d="M25.462 21.5069C24.99 21.6607 24.6611 22.1329 24.6611 22.6528C24.6611 23.5758 25.6212 24.117 26.4698 23.6713C27.3079 23.2363 27.2919 22.0162 26.4433 21.5811C26.1781 21.4432 25.7591 21.4114 25.462 21.5069Z" fill="#034EA2"/>
<path d="M1.11572 34.0049V39.7344H1.88481H2.6539V34.0049V28.2755H1.88481H1.11572V34.0049Z" fill="#EE1D25"/>
<path d="M39.5716 28.3918C39.5451 28.4608 38.4737 31.0231 37.1848 34.0894C35.8959 37.1558 34.8457 39.6809 34.8457 39.7022C34.8457 39.7234 35.1586 39.7287 35.5458 39.7234L36.2407 39.7075L36.9037 38.1266L37.5667 36.551H40.1497H42.7328L43.3322 38.1213C43.6663 38.986 43.9634 39.7022 43.9952 39.7128C44.027 39.7287 44.3983 39.7287 44.8226 39.7234L45.5917 39.7075L43.3799 34.0046L41.1734 28.3016L40.3937 28.2857C39.63 28.2751 39.6193 28.2751 39.5716 28.3918ZM41.2424 32.7313C41.7834 34.1478 42.2448 35.3361 42.2555 35.368C42.2767 35.421 41.8364 35.4369 40.1497 35.4369C38.4631 35.4369 38.0228 35.421 38.044 35.368C38.1289 35.1558 40.0171 30.5934 40.1073 30.3812C40.171 30.2433 40.224 30.1372 40.2346 30.1425C40.2399 30.1531 40.6961 31.3202 41.2424 32.7313Z" fill="#EE1D25"/>
<path d="M62.7485 28.9648V29.6544H63.4381H64.1276V28.9648V28.2751H63.4381H62.7485V28.9648Z" fill="#EE1D25"/>
<path d="M75.1565 30.5043V31.4592H74.414H73.6714V32.0428V32.6263H74.414H75.1565V35.1568C75.1565 37.8359 75.1777 38.1117 75.4164 38.6422C75.5543 38.9605 75.9521 39.3796 76.2969 39.5759C77.0023 39.9791 77.8722 40.0428 79.1239 39.7828L79.3998 39.7298V39.1515V38.5786L78.9913 38.69C77.8828 38.9871 77.0235 38.7218 76.7212 38.0003C76.578 37.6661 76.5356 36.9075 76.5356 34.7377V32.6263L77.7714 32.6157L79.002 32.5998V32.0428V31.4857L77.7714 31.4698L76.5356 31.4592V30.5043V29.5494H75.846H75.1565V30.5043Z" fill="#EE1D25"/>
<path d="M8.25033 31.3259C7.5608 31.501 6.89249 31.989 6.47347 32.6203L6.28253 32.9068L6.26661 32.1853L6.2507 31.4585H5.56648H4.87695V35.5964V39.7344H5.56117H6.2454L6.27192 37.31C6.30374 34.6468 6.32496 34.4293 6.62729 33.814C6.82354 33.4161 7.23725 33.0129 7.6934 32.7795C8.14424 32.5514 8.75421 32.5089 9.2687 32.6681L9.59755 32.7742V32.0686C9.59755 31.4479 9.58695 31.3577 9.50738 31.3259C9.31113 31.2463 8.56326 31.2463 8.25033 31.3259Z" fill="#EE1D25"/>
<path d="M13.1591 31.3258C12.2786 31.5167 11.7376 31.8032 11.2655 32.3231C10.9367 32.6838 10.7563 33.0287 10.7245 33.3735L10.698 33.6334H11.4406H12.1831L12.2149 33.4425C12.2627 33.1454 12.4908 32.8112 12.7666 32.6308C13.1697 32.3655 13.4932 32.2913 14.2093 32.3178C14.9306 32.3443 15.2648 32.461 15.5618 32.7846C15.8058 33.0552 15.8588 33.2727 15.8588 33.9889V34.5831L15.6626 34.6202C15.0102 34.7316 13.891 34.9809 13.4137 35.1189C11.3398 35.713 10.5813 36.4186 10.5919 37.7449C10.5972 38.4876 10.8677 39.0234 11.4565 39.4637C11.9179 39.8032 12.321 39.9199 13.0477 39.9199C14.0077 39.9199 14.5912 39.6865 15.4345 38.965L15.8323 38.6308L15.8694 38.8483C15.8906 38.9703 15.949 39.2197 15.9967 39.4L16.0816 39.7342H16.8242C17.5084 39.7342 17.5667 39.7289 17.5296 39.6441C17.5084 39.591 17.4447 39.3364 17.3917 39.0711C17.2962 38.6467 17.2856 38.3019 17.2591 35.9411C17.2273 33.0075 17.2007 32.7263 16.9143 32.286C16.6173 31.8457 15.8641 31.4584 14.989 31.3045C14.554 31.225 13.5675 31.2409 13.1591 31.3258ZM15.8058 36.9491C15.6201 37.8881 14.8245 38.6945 13.8751 38.8854C12.8833 39.087 11.9975 38.4239 12.1142 37.5751C12.2309 36.7263 12.9734 36.2701 15.1269 35.7289L15.8323 35.5539L15.8482 36.0897C15.8588 36.3868 15.8376 36.774 15.8058 36.9491Z" fill="#EE1D25"/>
<path d="M22.9928 31.2994C22.1813 31.4744 21.3539 32.0421 20.9614 32.6893C20.9136 32.7742 20.8553 32.8378 20.8341 32.8378C20.8129 32.8378 20.7916 32.5248 20.7916 32.1482V31.4585H20.1021H19.4126V35.5964V39.7344H20.0968H20.781L20.8076 37.31C20.8288 35.0606 20.8394 34.8484 20.9455 34.4665C21.0887 33.9147 21.2849 33.5699 21.6456 33.2039C22.0858 32.7636 22.5367 32.5567 23.1201 32.5301C23.4914 32.5142 23.6293 32.5301 23.8733 32.6203C24.2446 32.7636 24.5681 33.0341 24.706 33.3312C24.897 33.7238 24.9288 34.2702 24.9288 37.0606V39.7344H25.6183H26.3079V36.6681C26.3079 33.3683 26.2919 33.188 26.0214 32.5938C25.7721 32.0527 25.2099 31.5911 24.5204 31.3736C24.2181 31.2781 23.2952 31.2304 22.9928 31.2994Z" fill="#EE1D25"/>
<path d="M48.9829 31.3205C47.9698 31.5167 47.2962 31.9942 46.9196 32.7846C46.7817 33.0764 46.7499 33.2037 46.7393 33.6069C46.7128 34.2541 46.8401 34.6043 47.2538 35.0181C47.6569 35.4159 48.0812 35.6122 49.5398 36.0472C50.7863 36.4186 50.9348 36.477 51.2318 36.6998C51.4228 36.843 51.6031 37.1825 51.6084 37.4C51.6084 37.8085 51.2955 38.2754 50.834 38.5459C50.3407 38.8377 49.386 38.9014 48.6912 38.6945C48.304 38.5831 47.9221 38.2117 47.8691 37.904C47.8478 37.7873 47.8266 37.66 47.816 37.6228C47.8001 37.5751 47.6092 37.5592 47.0947 37.5592H46.3945L46.4264 37.8138C46.5377 38.7581 47.2909 39.5167 48.426 39.8244C48.6912 39.8987 48.9776 39.9199 49.6459 39.9199C50.3142 39.9199 50.6006 39.8987 50.8658 39.8244C51.4281 39.6759 51.8683 39.4266 52.2237 39.0711C52.7594 38.5406 52.9875 37.9783 52.9875 37.1772C52.9875 36.6255 52.8708 36.2541 52.5897 35.9305C52.2184 35.4955 51.8418 35.3311 50.1445 34.8589C48.8821 34.5088 48.6116 34.3974 48.3305 34.1268L48.0971 33.904L48.1183 33.5327C48.1343 33.2144 48.1608 33.1348 48.2987 32.9597C48.3889 32.8483 48.601 32.6838 48.7707 32.599C49.0731 32.4451 49.1049 32.4398 49.8262 32.4398C50.537 32.4398 50.59 32.4451 50.8764 32.5884C51.1894 32.7422 51.3962 32.9862 51.3962 33.2037C51.3962 33.3098 51.4175 33.3151 52.1176 33.3151H52.8389L52.8071 33.1136C52.648 32.2223 52.0646 31.6175 51.1363 31.3788C50.6643 31.2568 49.4762 31.225 48.9829 31.3205Z" fill="#EE1D25"/>
<path d="M56.8823 31.3205C55.8692 31.5167 55.1956 31.9942 54.819 32.7846C54.6811 33.0764 54.6493 33.2037 54.6387 33.6069C54.6122 34.2541 54.7395 34.6043 55.1532 35.0181C55.5563 35.4159 55.9806 35.6122 57.4392 36.0472C58.6857 36.4186 58.8342 36.477 59.1312 36.6998C59.3222 36.843 59.5025 37.1825 59.5078 37.4C59.5078 37.8085 59.1949 38.2754 58.7334 38.5459C58.2402 38.8377 57.2854 38.9014 56.5906 38.6945C56.2034 38.5831 55.8215 38.2117 55.7685 37.904C55.7473 37.7873 55.726 37.66 55.7154 37.6228C55.6995 37.5751 55.5086 37.5592 54.9941 37.5592H54.2939L54.3258 37.8138C54.4372 38.7581 55.1903 39.5167 56.3254 39.8244C56.5906 39.8987 56.877 39.9199 57.5453 39.9199C58.2136 39.9199 58.5001 39.8987 58.7653 39.8244C59.3275 39.6759 59.7677 39.4266 60.1231 39.0711C60.6588 38.5406 60.8869 37.9783 60.8869 37.1772C60.8869 36.6255 60.7702 36.2541 60.4891 35.9305C60.1178 35.4955 59.7412 35.3311 58.0439 34.8589C56.7815 34.5088 56.511 34.3974 56.2299 34.1268L55.9965 33.904L56.0178 33.5327C56.0337 33.2144 56.0602 33.1348 56.1981 32.9597C56.2883 32.8483 56.5004 32.6838 56.6702 32.599C56.9725 32.4451 57.0043 32.4398 57.7257 32.4398C58.4364 32.4398 58.4894 32.4451 58.7759 32.5884C59.0888 32.7422 59.2957 32.9862 59.2957 33.2037C59.2957 33.3098 59.3169 33.3151 60.017 33.3151H60.7384L60.7065 33.1136C60.5474 32.2223 59.964 31.6175 59.0358 31.3788C58.5637 31.2568 57.3756 31.225 56.8823 31.3205Z" fill="#EE1D25"/>
<path d="M68.4487 31.3205C67.4357 31.5167 66.762 31.9942 66.3855 32.7846C66.2475 33.0764 66.2157 33.2037 66.2051 33.6069C66.1786 34.2541 66.3059 34.6043 66.7196 35.0181C67.1227 35.4159 67.547 35.6122 69.0057 36.0472C70.2521 36.4186 70.4006 36.477 70.6976 36.6998C70.8886 36.843 71.0689 37.1825 71.0742 37.4C71.0742 37.8085 70.7613 38.2754 70.2998 38.5459C69.8066 38.8377 68.8518 38.9014 68.157 38.6945C67.7698 38.5831 67.3879 38.2117 67.3349 37.904C67.3137 37.7873 67.2924 37.66 67.2818 37.6228C67.2659 37.5751 67.075 37.5592 66.5605 37.5592H65.8604L65.8922 37.8138C66.0036 38.7581 66.7567 39.5167 67.8918 39.8244C68.157 39.8987 68.4434 39.9199 69.1117 39.9199C69.78 39.9199 70.0665 39.8987 70.3317 39.8244C70.8939 39.6759 71.3341 39.4266 71.6895 39.0711C72.2252 38.5406 72.4533 37.9783 72.4533 37.1772C72.4533 36.6255 72.3366 36.2541 72.0555 35.9305C71.6842 35.4955 71.3076 35.3311 69.6103 34.8589C68.3479 34.5088 68.0774 34.3974 67.7963 34.1268L67.563 33.904L67.5842 33.5327C67.6001 33.2144 67.6266 33.1348 67.7645 32.9597C67.8547 32.8483 68.0668 32.6838 68.2366 32.599C68.5389 32.4451 68.5707 32.4398 69.2921 32.4398C70.0028 32.4398 70.0559 32.4451 70.3423 32.5884C70.6552 32.7422 70.8621 32.9862 70.8621 33.2037C70.8621 33.3098 70.8833 33.3151 71.5834 33.3151H72.3048L72.2729 33.1136C72.1138 32.2223 71.5304 31.6175 70.6022 31.3788C70.1301 31.2568 68.942 31.225 68.4487 31.3205Z" fill="#EE1D25"/>
<path d="M83.4359 31.3258C82.5554 31.5167 82.0144 31.8032 81.5424 32.3231C81.2135 32.6838 81.0332 33.0287 81.0014 33.3735L80.9748 33.6334H81.7174H82.46L82.4918 33.4425C82.5395 33.1454 82.7676 32.8112 83.0434 32.6308C83.4465 32.3655 83.7701 32.2913 84.4861 32.3178C85.2075 32.3443 85.5416 32.461 85.8387 32.7846C86.0826 33.0552 86.1357 33.2727 86.1357 33.9889V34.5831L85.9394 34.6202C85.287 34.7316 84.1679 34.9809 83.6905 35.1189C81.6166 35.713 80.8582 36.4186 80.8688 37.7449C80.8741 38.4876 81.1446 39.0234 81.7333 39.4637C82.1948 39.8032 82.5979 39.9199 83.3245 39.9199C84.2846 39.9199 84.868 39.6865 85.7114 38.965L86.1092 38.6308L86.1463 38.8483C86.1675 38.9703 86.2258 39.2197 86.2736 39.4L86.3584 39.7342H87.101C87.7852 39.7342 87.8436 39.7289 87.8065 39.6441C87.7852 39.591 87.7216 39.3364 87.6685 39.0711C87.5731 38.6467 87.5625 38.3019 87.5359 35.9411C87.5041 33.0075 87.4776 32.7263 87.1912 32.286C86.8942 31.8457 86.141 31.4584 85.2658 31.3045C84.8309 31.225 83.8443 31.2409 83.4359 31.3258ZM86.0826 36.9491C85.897 37.8881 85.1014 38.6945 84.152 38.8854C83.1601 39.087 82.2743 38.4239 82.391 37.5751C82.5077 36.7263 83.2503 36.2701 85.4037 35.7289L86.1092 35.5539L86.1251 36.0897C86.1357 36.3868 86.1145 36.774 86.0826 36.9491Z" fill="#EE1D25"/>
<path d="M93.2692 31.2994C92.4577 31.4744 91.6302 32.0421 91.2377 32.6893C91.19 32.7742 91.1317 32.8378 91.1104 32.8378C91.0892 32.8378 91.068 32.5248 91.068 32.1482V31.4585H90.3785H89.689V35.5964V39.7344H90.3732H91.0574L91.0839 37.31C91.1051 35.0606 91.1158 34.8484 91.2218 34.4665C91.365 33.9147 91.5613 33.5699 91.922 33.2039C92.3622 32.7636 92.813 32.5567 93.3965 32.5301C93.7678 32.5142 93.9057 32.5301 94.1497 32.6203C94.5209 32.7636 94.8445 33.0341 94.9824 33.3312C95.1733 33.7238 95.2052 34.2702 95.2052 37.0606V39.7344H95.8947H96.5842V36.6681C96.5842 33.3683 96.5683 33.188 96.2978 32.5938C96.0485 32.0527 95.4863 31.5911 94.7968 31.3736C94.4944 31.2781 93.5715 31.2304 93.2692 31.2994Z" fill="#EE1D25"/>
<path d="M101.479 31.2949C100.169 31.5071 99.2146 32.2551 98.7266 33.4646C98.1856 34.8068 98.2333 36.7856 98.838 38.011C99.4745 39.2896 100.62 39.9474 102.233 39.9474C102.965 39.9474 103.511 39.836 104.047 39.576C104.794 39.21 105.367 38.5044 105.431 37.8731L105.457 37.6132H104.763C104.004 37.6132 104.057 37.5866 103.983 37.9633C103.866 38.5522 102.922 38.9394 101.957 38.7909C101.41 38.706 101.05 38.5256 100.663 38.1649C100.313 37.8307 100.09 37.4275 99.9412 36.8705C99.798 36.3347 99.8139 34.8174 99.9677 34.2498C100.18 33.4752 100.588 32.9607 101.246 32.637L101.644 32.4408H102.36C103.044 32.4408 103.097 32.4461 103.389 32.5946C103.75 32.7697 103.978 33.0455 104.031 33.3691L104.062 33.5813H104.763H105.457L105.426 33.2949C105.341 32.4726 104.492 31.6662 103.399 31.3744C103.033 31.279 101.888 31.2312 101.479 31.2949Z" fill="#EE1D25"/>
<path d="M110.049 31.3007C109.1 31.4599 108.209 32.0222 107.646 32.8127C106.395 34.5633 106.517 37.322 107.917 38.8286C108.66 39.6297 109.699 39.9957 111.083 39.9373C112.176 39.8896 112.956 39.5607 113.571 38.8976C113.889 38.5527 114.091 38.1283 114.091 37.7994V37.6137H113.401H112.712V37.7676C112.712 38.001 112.409 38.4042 112.097 38.5793C111.508 38.9029 110.41 38.9029 109.699 38.5686C108.861 38.1761 108.256 37.1893 108.198 36.123L108.177 35.7835L111.168 35.7676L114.16 35.757L114.128 34.9188C114.086 33.6031 113.815 32.8392 113.163 32.1708C112.468 31.4599 111.2 31.1098 110.049 31.3007ZM111.609 32.5846C111.773 32.6588 112.012 32.8233 112.144 32.94C112.521 33.2901 112.813 33.9745 112.818 34.5209V34.749H110.532C108.384 34.749 108.251 34.7437 108.278 34.6535C108.294 34.6058 108.331 34.4572 108.362 34.3246C108.516 33.7304 109.084 32.9453 109.54 32.696C110.017 32.436 110.123 32.4148 110.723 32.4307C111.221 32.4413 111.349 32.4625 111.609 32.5846Z" fill="#EE1D25"/>
<path d="M62.7485 35.5964V39.7344H63.4381H64.1276V35.5964V31.4585H63.4381H62.7485V35.5964Z" fill="#EE1D25"/>
</svg>
