<svg width="18" height="18" viewBox="0 0 18 18" fill="none" xmlns="http://www.w3.org/2000/svg">
<g clip-path="url(#clip0_11_4166)">
<path d="M8.99104 1.50293C4.85104 1.50293 1.49854 4.86293 1.49854 9.00293C1.49854 13.1429 4.85104 16.5029 8.99104 16.5029C13.1385 16.5029 16.4985 13.1429 16.4985 9.00293C16.4985 4.86293 13.1385 1.50293 8.99104 1.50293ZM8.99854 15.0029C5.68354 15.0029 2.99854 12.3179 2.99854 9.00293C2.99854 5.68793 5.68354 3.00293 8.99854 3.00293C12.3135 3.00293 14.9985 5.68793 14.9985 9.00293C14.9985 12.3179 12.3135 15.0029 8.99854 15.0029ZM8.83354 5.25293H8.78854C8.48854 5.25293 8.24854 5.49293 8.24854 5.79293V9.33293C8.24854 9.59543 8.38354 9.84293 8.61604 9.97793L11.7285 11.8454C11.9835 11.9954 12.3135 11.9204 12.4635 11.6654C12.621 11.4104 12.5385 11.0729 12.276 10.9229L9.37354 9.19793V5.79293C9.37354 5.49293 9.13354 5.25293 8.83354 5.25293Z" fill="#9E9E9E"/>
</g>
<defs>
<clipPath id="clip0_11_4166">
<rect width="18" height="18" fill="white"/>
</clipPath>
</defs>
</svg>
